<svg width="9" height="11" viewBox="0 0 9 11" fill="none" xmlns="http://www.w3.org/2000/svg">
<path d="M8.78094 5.21876C8.63507 5.07291 8.45806 5.00004 8.24963 5.00004H7.99978V3.49996C7.99978 2.54164 7.65612 1.7188 6.96859 1.0313C6.28111 0.343765 5.45835 0 4.4999 0C3.54147 0 2.71855 0.343765 2.03112 1.03127C1.34359 1.7188 0.999938 2.54161 0.999938 3.49996V5.00004H0.749974C0.541712 5.00004 0.364589 5.07291 0.218742 5.21876C0.0728959 5.3645 0 5.54162 0 5.75007V10.25C0 10.4583 0.0729232 10.6355 0.218742 10.7813C0.364589 10.927 0.541712 11 0.749974 11H8.24982C8.45825 11 8.63523 10.9271 8.78114 10.7813C8.92685 10.6355 8.99988 10.4583 8.99988 10.25V5.74999C8.99999 5.5417 8.92685 5.36461 8.78094 5.21876ZM6.49986 5.00004H2.49994V3.49996C2.49994 2.94791 2.69529 2.47652 3.0859 2.08596C3.47656 1.69535 3.94787 1.50008 4.49998 1.50008C5.05214 1.50008 5.52334 1.69532 5.91403 2.08596C6.30454 2.47649 6.49986 2.94791 6.49986 3.49996V5.00004Z" fill="#AFB4CC"/>
</svg>
